<?xml version="1.0" encoding="UTF-8"?>
<svg xmlns="http://www.w3.org/2000/svg" xmlns:xlink="http://www.w3.org/1999/xlink" fill-opacity="1" color-rendering="auto" color-interpolation="auto" stroke="black" text-rendering="auto" stroke-linecap="square" width="646" stroke-miterlimit="10" stroke-opacity="1" shape-rendering="auto" fill="black" stroke-dasharray="none" font-weight="normal" stroke-width="1" height="540" font-family="'Dialog'" font-style="normal" stroke-linejoin="miter" font-size="12" stroke-dashoffset="0" image-rendering="auto">
  <!--Generated by ySVG-->
  <defs id="genericDefs"/>
  <g>
    <defs id="defs1">
      <clipPath clipPathUnits="userSpaceOnUse" id="clipPath1">
        <path d="M0 0 L646 0 L646 540 L0 540 L0 0 Z"/>
      </clipPath>
      <clipPath clipPathUnits="userSpaceOnUse" id="clipPath2">
        <path d="M290 138 L936 138 L936 678 L290 678 L290 138 Z"/>
      </clipPath>
    </defs>
    <g fill="white" transform="translate(-290,-138)" stroke="white">
      <rect x="290" width="646" height="540" y="138" clip-path="url(#clipPath2)" stroke="none"/>
    </g>
    <g fill="white" transform="matrix(1,0,0,1,-290,-138)" stroke="white">
      <rect x="435" y="191" clip-path="url(#clipPath2)" width="396" rx="4" ry="4" height="326" stroke="none"/>
    </g>
    <g stroke-miterlimit="1.45" font-family="sans-serif" transform="matrix(1,0,0,1,-290,-138)" stroke-linecap="butt">
      <text x="677.5723" xml:space="preserve" y="209.0645" clip-path="url(#clipPath2)" stroke="none">Continuous Integration Tool</text>
      <rect x="435" y="191" clip-path="url(#clipPath2)" fill="none" width="396" rx="4" ry="4" height="326"/>
    </g>
    <g fill="rgb(134,206,0)" transform="matrix(1,0,0,1,-290,-138)" stroke="rgb(134,206,0)">
      <rect x="305" y="153" clip-path="url(#clipPath2)" width="90" rx="4" ry="4" height="43" stroke="none"/>
    </g>
    <g fill="white" stroke-miterlimit="1.45" font-family="sans-serif" transform="matrix(1,0,0,1,-290,-138)" stroke-linecap="butt" stroke="white">
      <text x="335.6562" xml:space="preserve" y="179.2139" clip-path="url(#clipPath2)" stroke="none">Code</text>
    </g>
    <g fill="rgb(97,151,0)" stroke-width="2" stroke-miterlimit="1.45" transform="matrix(1,0,0,1,-290,-138)" stroke-linecap="butt" stroke="rgb(97,151,0)">
      <rect x="305" y="153" clip-path="url(#clipPath2)" fill="none" width="90" rx="4" ry="4" height="43"/>
    </g>
    <g fill="rgb(134,206,0)" transform="matrix(1,0,0,1,-290,-138)" stroke="rgb(134,206,0)">
      <rect x="305" y="226" clip-path="url(#clipPath2)" width="90" rx="4" ry="4" height="43" stroke="none"/>
    </g>
    <g fill="white" stroke-miterlimit="1.45" font-family="sans-serif" transform="matrix(1,0,0,1,-290,-138)" stroke-linecap="butt" stroke="white">
      <text x="309.9805" xml:space="preserve" y="252.2139" clip-path="url(#clipPath2)" stroke="none">Source Control</text>
      <rect x="305" y="226" clip-path="url(#clipPath2)" fill="none" width="90" rx="4" ry="4" height="43" stroke="black"/>
    </g>
    <g fill="rgb(134,206,0)" transform="matrix(1,0,0,1,-290,-138)" stroke="rgb(134,206,0)">
      <rect x="459" y="226" clip-path="url(#clipPath2)" width="90" rx="4" ry="4" height="43" stroke="none"/>
    </g>
    <g fill="white" stroke-miterlimit="1.45" font-family="sans-serif" transform="matrix(1,0,0,1,-290,-138)" stroke-linecap="butt" stroke="white">
      <text x="490.6582" xml:space="preserve" y="252.2139" clip-path="url(#clipPath2)" stroke="none">Build</text>
    </g>
    <g fill="rgb(97,151,0)" stroke-width="2" stroke-miterlimit="1.45" transform="matrix(1,0,0,1,-290,-138)" stroke-linecap="butt" stroke="rgb(97,151,0)">
      <rect x="459" y="226" clip-path="url(#clipPath2)" fill="none" width="90" rx="4" ry="4" height="43"/>
    </g>
    <g fill="rgb(134,206,0)" transform="matrix(1,0,0,1,-290,-138)" stroke="rgb(134,206,0)">
      <rect x="459" y="299" clip-path="url(#clipPath2)" width="90" rx="4" ry="4" height="43" stroke="none"/>
    </g>
    <g fill="white" stroke-miterlimit="1.45" font-family="sans-serif" transform="matrix(1,0,0,1,-290,-138)" stroke-linecap="butt" stroke="white">
      <text x="479.9941" xml:space="preserve" y="325.2139" clip-path="url(#clipPath2)" stroke="none">Unit Test</text>
    </g>
    <g fill="rgb(97,151,0)" stroke-width="2" stroke-miterlimit="1.45" transform="matrix(1,0,0,1,-290,-138)" stroke-linecap="butt" stroke="rgb(97,151,0)">
      <rect x="459" y="299" clip-path="url(#clipPath2)" fill="none" width="90" rx="4" ry="4" height="43"/>
    </g>
    <g fill="rgb(134,206,0)" transform="matrix(1,0,0,1,-290,-138)" stroke="rgb(134,206,0)">
      <rect x="579" y="299" clip-path="url(#clipPath2)" width="90" rx="4" ry="4" height="43" stroke="none"/>
    </g>
    <g fill="white" stroke-miterlimit="1.45" font-family="sans-serif" transform="matrix(1,0,0,1,-290,-138)" stroke-linecap="butt" stroke="white">
      <text x="582.3105" xml:space="preserve" y="325.2139" clip-path="url(#clipPath2)" stroke="none">Integration Test</text>
    </g>
    <g fill="rgb(97,151,0)" stroke-width="2" stroke-miterlimit="1.45" transform="matrix(1,0,0,1,-290,-138)" stroke-linecap="butt" stroke="rgb(97,151,0)">
      <rect x="579" y="299" clip-path="url(#clipPath2)" fill="none" width="90" rx="4" ry="4" height="43"/>
    </g>
    <g fill="rgb(134,206,0)" transform="matrix(1,0,0,1,-290,-138)" stroke="rgb(134,206,0)">
      <rect x="699" y="299" clip-path="url(#clipPath2)" width="90" rx="4" ry="4" height="43" stroke="none"/>
    </g>
    <g fill="white" stroke-miterlimit="1.45" font-family="sans-serif" transform="matrix(1,0,0,1,-290,-138)" stroke-linecap="butt" stroke="white">
      <text x="712.6582" xml:space="preserve" y="325.2139" clip-path="url(#clipPath2)" stroke="none">Other Tests</text>
    </g>
    <g fill="rgb(97,151,0)" stroke-width="2" stroke-miterlimit="1.45" transform="matrix(1,0,0,1,-290,-138)" stroke-linecap="butt" stroke="rgb(97,151,0)">
      <rect x="699" y="299" clip-path="url(#clipPath2)" fill="none" width="90" rx="4" ry="4" height="43"/>
    </g>
    <g fill="rgb(134,206,0)" transform="matrix(1,0,0,1,-290,-138)" stroke="rgb(134,206,0)">
      <rect x="699" y="372" clip-path="url(#clipPath2)" width="90" rx="4" ry="4" height="43" stroke="none"/>
    </g>
    <g fill="white" stroke-miterlimit="1.45" font-family="sans-serif" transform="matrix(1,0,0,1,-290,-138)" stroke-linecap="butt" stroke="white">
      <text x="705.6416" xml:space="preserve" y="398.2139" clip-path="url(#clipPath2)" stroke="none">Build Package</text>
    </g>
    <g fill="rgb(97,151,0)" stroke-width="2" stroke-miterlimit="1.45" transform="matrix(1,0,0,1,-290,-138)" stroke-linecap="butt" stroke="rgb(97,151,0)">
      <rect x="699" y="372" clip-path="url(#clipPath2)" fill="none" width="90" rx="4" ry="4" height="43"/>
    </g>
    <g fill="rgb(134,206,0)" transform="matrix(1,0,0,1,-290,-138)" stroke="rgb(134,206,0)">
      <rect x="699" y="445" clip-path="url(#clipPath2)" width="90" rx="4" ry="4" height="43" stroke="none"/>
    </g>
    <g fill="white" stroke-miterlimit="1.45" font-family="sans-serif" transform="matrix(1,0,0,1,-290,-138)" stroke-linecap="butt" stroke="white">
      <text x="702.3047" xml:space="preserve" y="471.2139" clip-path="url(#clipPath2)" stroke="none">Upload to Repo</text>
    </g>
    <g fill="rgb(97,151,0)" stroke-width="2" stroke-miterlimit="1.45" transform="matrix(1,0,0,1,-290,-138)" stroke-linecap="butt" stroke="rgb(97,151,0)">
      <rect x="699" y="445" clip-path="url(#clipPath2)" fill="none" width="90" rx="4" ry="4" height="43"/>
    </g>
    <g fill="rgb(134,206,0)" transform="matrix(1,0,0,1,-290,-138)" stroke="rgb(134,206,0)">
      <rect x="699" y="547" clip-path="url(#clipPath2)" width="90" rx="4" ry="4" height="43" stroke="none"/>
    </g>
    <g fill="white" stroke-miterlimit="1.45" font-family="sans-serif" transform="matrix(1,0,0,1,-290,-138)" stroke-linecap="butt" stroke="white">
      <text x="709.3213" xml:space="preserve" y="573.2139" clip-path="url(#clipPath2)" stroke="none">Deploy script</text>
    </g>
    <g fill="rgb(97,151,0)" stroke-width="2" stroke-miterlimit="1.45" transform="matrix(1,0,0,1,-290,-138)" stroke-linecap="butt" stroke="rgb(97,151,0)">
      <rect x="699" y="547" clip-path="url(#clipPath2)" fill="none" width="90" rx="4" ry="4" height="43"/>
    </g>
    <g fill="rgb(134,206,0)" transform="matrix(1,0,0,1,-290,-138)" stroke="rgb(134,206,0)">
      <rect x="831" y="547" clip-path="url(#clipPath2)" width="90" rx="4" ry="4" height="43" stroke="none"/>
    </g>
    <g fill="white" stroke-miterlimit="1.45" font-family="sans-serif" transform="matrix(1,0,0,1,-290,-138)" stroke-linecap="butt" stroke="white">
      <text x="843.9902" xml:space="preserve" y="573.2139" clip-path="url(#clipPath2)" stroke="none">Smoke Test</text>
    </g>
    <g fill="rgb(97,151,0)" stroke-width="2" stroke-miterlimit="1.45" transform="matrix(1,0,0,1,-290,-138)" stroke-linecap="butt" stroke="rgb(97,151,0)">
      <rect x="831" y="547" clip-path="url(#clipPath2)" fill="none" width="90" rx="4" ry="4" height="43"/>
    </g>
    <g fill="rgb(134,206,0)" transform="matrix(1,0,0,1,-290,-138)" stroke="rgb(134,206,0)">
      <rect x="831" y="620" clip-path="url(#clipPath2)" width="90" rx="4" ry="4" height="43" stroke="none"/>
    </g>
    <g fill="white" stroke-miterlimit="1.45" font-family="sans-serif" transform="matrix(1,0,0,1,-290,-138)" stroke-linecap="butt" stroke="white">
      <text x="855.9932" xml:space="preserve" y="646.2139" clip-path="url(#clipPath2)" stroke="none">Monitor</text>
    </g>
    <g fill="rgb(97,151,0)" stroke-width="2" stroke-miterlimit="1.45" transform="matrix(1,0,0,1,-290,-138)" stroke-linecap="butt" stroke="rgb(97,151,0)">
      <rect x="831" y="620" clip-path="url(#clipPath2)" fill="none" width="90" rx="4" ry="4" height="43"/>
    </g>
    <g fill="rgb(134,206,0)" transform="matrix(1,0,0,1,-290,-138)" stroke="rgb(134,206,0)">
      <rect x="579" y="547" clip-path="url(#clipPath2)" width="90" rx="4" ry="4" height="43" stroke="none"/>
    </g>
    <g fill="white" stroke-miterlimit="1.45" font-family="sans-serif" transform="matrix(1,0,0,1,-290,-138)" stroke-linecap="butt" stroke="white">
      <text x="588.3105" xml:space="preserve" y="573.2139" clip-path="url(#clipPath2)" stroke="none">Configuration</text>
    </g>
    <g fill="rgb(97,151,0)" stroke-width="2" stroke-miterlimit="1.45" transform="matrix(1,0,0,1,-290,-138)" stroke-linecap="butt" stroke="rgb(97,151,0)">
      <rect x="579" y="547" clip-path="url(#clipPath2)" fill="none" width="90" rx="4" ry="4" height="43"/>
      <path fill="none" stroke-width="1" d="M350 195.9937 L350 217.9971" clip-path="url(#clipPath2)" stroke="black"/>
      <path fill="black" stroke-width="1" d="M350 225.9971 L355 213.9971 L350 216.9971 L345 213.9971 Z" clip-path="url(#clipPath2)" stroke="none"/>
      <path fill="none" stroke-width="1" d="M395.0044 247.5 L451.002 247.5" clip-path="url(#clipPath2)" stroke="black"/>
      <path fill="black" stroke-width="1" d="M459.002 247.5 L447.002 242.5 L450.002 247.5 L447.002 252.5 Z" clip-path="url(#clipPath2)" stroke="none"/>
      <path fill="none" stroke-width="1" d="M504 268.9937 L504 290.9971" clip-path="url(#clipPath2)" stroke="black"/>
      <path fill="black" stroke-width="1" d="M504 298.9971 L509 286.9971 L504 289.9971 L499 286.9971 Z" clip-path="url(#clipPath2)" stroke="none"/>
      <path fill="none" stroke-width="1" d="M548.9707 320.5 L570.9751 320.5" clip-path="url(#clipPath2)" stroke="black"/>
      <path fill="black" stroke-width="1" d="M578.9751 320.5 L566.9751 315.5 L569.9751 320.5 L566.9751 325.5 Z" clip-path="url(#clipPath2)" stroke="none"/>
      <path fill="none" stroke-width="1" d="M668.9707 320.5 L690.9751 320.5" clip-path="url(#clipPath2)" stroke="black"/>
      <path fill="black" stroke-width="1" d="M698.9751 320.5 L686.9751 315.5 L689.9751 320.5 L686.9751 325.5 Z" clip-path="url(#clipPath2)" stroke="none"/>
      <path fill="none" stroke-width="1" d="M744 341.9937 L744 363.9971" clip-path="url(#clipPath2)" stroke="black"/>
      <path fill="black" stroke-width="1" d="M744 371.9971 L749 359.9971 L744 362.9971 L739 359.9971 Z" clip-path="url(#clipPath2)" stroke="none"/>
      <path fill="none" stroke-width="1" d="M744 414.9937 L744 436.9971" clip-path="url(#clipPath2)" stroke="black"/>
      <path fill="black" stroke-width="1" d="M744 444.9971 L749 432.9971 L744 435.9971 L739 432.9971 Z" clip-path="url(#clipPath2)" stroke="none"/>
      <path fill="none" stroke-width="1" d="M744 487.9658 L744 538.9901" clip-path="url(#clipPath2)" stroke="black"/>
      <path fill="black" stroke-width="1" d="M744 546.9901 L749 534.9901 L744 537.9901 L739 534.9901 Z" clip-path="url(#clipPath2)" stroke="none"/>
      <path fill="none" stroke-width="1" d="M789.0205 568.5 L823.0238 568.5" clip-path="url(#clipPath2)" stroke="black"/>
      <path fill="black" stroke-width="1" d="M831.0238 568.5 L819.0238 563.5 L822.0238 568.5 L819.0238 573.5 Z" clip-path="url(#clipPath2)" stroke="none"/>
      <path fill="none" stroke-width="1" d="M876 589.9937 L876 611.9971" clip-path="url(#clipPath2)" stroke="black"/>
      <path fill="black" stroke-width="1" d="M876 619.9971 L881 607.9971 L876 610.9971 L871 607.9971 Z" clip-path="url(#clipPath2)" stroke="none"/>
      <path fill="none" stroke-width="1" d="M668.9707 568.5 L690.9751 568.5" clip-path="url(#clipPath2)" stroke="black"/>
      <path fill="black" stroke-width="1" d="M698.9751 568.5 L686.9751 563.5 L689.9751 568.5 L686.9751 573.5 Z" clip-path="url(#clipPath2)" stroke="none"/>
    </g>
  </g>
</svg>
